<?xml version="1.0" encoding="utf-8"?>
<!-- Generator: Adobe Illustrator 27.5.0, SVG Export Plug-In . SVG Version: 6.00 Build 0)  -->
<svg version="1.1" xmlns="http://www.w3.org/2000/svg" xmlns:xlink="http://www.w3.org/1999/xlink" x="0px" y="0px"
	 viewBox="0 0 500 500" style="enable-background:new 0 0 500 500;" xml:space="preserve">
<g id="Floor">
	<g id="Background_00000156568393976870535740000012477522766213596804_">
		<path style="fill:#37474F;" d="M489.26,244.174c-5.18-53.7-32.15-107.275-55.416-136.862
			C335.234-18.09,137.314-17.845,43.045,139.658c-26.59,44.426-43.275,143.194-23.528,216.247
			c25.271,93.493,124.856,129.907,235.597,129.046c103.469-0.804,184.826-45.79,215.288-107.937
			C489.464,338.126,494.44,297.874,489.26,244.174z"/>
		<path style="fill:#263238;" d="M43.045,139.658c-26.59,44.426-43.275,143.194-23.528,216.247
			c4.434,16.405,11.164,31.045,19.833,44.042c0,0,0,0.001,0.001,0.001l109.95-63.47l93.7-54.09v0l220.124-127.07
			c-0.001-0.001-0.001-0.002-0.002-0.004c-9.164-19.032-19.543-35.621-29.278-48.001C335.234-18.09,137.314-17.845,43.045,139.658z"
			/>
		<g style="opacity:0.2;">
			<path d="M43.225,215.101c2.13-1.229,3.856-4.219,3.856-6.679v-7.803c0-2.459-1.726-3.456-3.856-2.226l-25.47,14.705
				c-1.174,6.035-2.215,12.217-3.11,18.503L43.225,215.101z"/>
			<path d="M34.137,157.426l9.087-5.246c2.13-1.23,3.856-4.22,3.856-6.679v-7.803c0-1.307-0.497-2.185-1.274-2.55
				c-0.929,1.491-1.852,2.991-2.762,4.511C39.924,144.872,36.942,150.843,34.137,157.426z"/>
			<path d="M81.971,88.818l7.696-4.443c2.126-1.228,3.849-4.21,3.855-6.667C89.593,81.251,85.742,84.955,81.971,88.818z"/>
			<path d="M47.081,290.492v-7.802c0-2.459-1.726-3.456-3.856-2.227L11.188,298.96c0.236,5.39,0.605,10.753,1.115,16.064
				l30.922-17.853C45.355,295.941,47.081,292.952,47.081,290.492z"/>
			<path d="M139.965,174.032v-7.803c0-2.459-1.726-3.456-3.856-2.226l-35.696,20.61c-2.13,1.229-3.856,4.22-3.857,6.679v7.803
				c0,2.459,1.727,3.456,3.856,2.226l35.697-20.609C138.239,179.481,139.965,176.491,139.965,174.032z"/>
			<path d="M20.433,359.045c0.753,2.577,1.555,5.116,2.422,7.604v-4.876C22.855,359.9,21.851,358.884,20.433,359.045z"/>
			<path d="M20.679,267.681c2.129-1.229,3.856-4.22,3.856-6.679v-7.802c0-2.459-1.727-3.456-3.856-2.227l-8.713,5.03
				c-0.441,5.717-0.752,11.475-0.929,17.244L20.679,267.681z"/>
			<path d="M146.856,133.516l35.696-20.609c2.13-1.23,3.856-4.22,3.856-6.679v-7.803c0-2.459-1.726-3.456-3.856-2.226
				l-35.696,20.609c-2.13,1.23-3.856,4.22-3.856,6.679v7.803C143,133.749,144.725,134.745,146.856,133.516z"/>
			<path d="M170.752,263.284l35.696-20.61c2.13-1.229,3.856-4.22,3.856-6.679v-7.803c0-2.459-1.726-3.456-3.856-2.226
				l-35.696,20.609c-2.13,1.229-3.856,4.22-3.856,6.679v7.803C166.896,263.517,168.622,264.513,170.752,263.284z"/>
			<path d="M77.867,111.646l35.696-20.609c2.13-1.23,3.856-4.22,3.856-6.679v-7.803c0-2.459-1.726-3.456-3.856-2.226L77.867,94.938
				c-2.13,1.23-3.856,4.22-3.856,6.679v7.803C74.01,111.879,75.737,112.876,77.867,111.646z"/>
			<path d="M143,172.325c0,2.459,1.726,3.456,3.856,2.227l35.696-20.609c2.13-1.229,3.856-4.22,3.856-6.679v-7.802
				c0-2.459-1.726-3.456-3.856-2.227l-35.696,20.609c-2.13,1.229-3.856,4.22-3.856,6.679V172.325z"/>
			<path d="M89.667,272.843l-35.696,20.609c-2.13,1.23-3.856,4.22-3.856,6.679l-0.001,7.803c0,2.459,1.726,3.456,3.856,2.226
				l35.697-20.609c2.13-1.23,3.856-4.22,3.856-6.679v-7.803C93.523,272.61,91.797,271.613,89.667,272.843z"/>
			<path d="M232.604,17.672c-10.664,0.787-21.306,2.32-31.85,4.608l-7.455,4.304c-2.13,1.229-3.856,4.22-3.856,6.679l-0.001,7.803
				c0,2.459,1.727,3.456,3.856,2.227l35.697-20.61C230.658,21.723,232.063,19.689,232.604,17.672z"/>
			<path d="M117.42,248.499v-7.803c0-2.459-1.726-3.456-3.856-2.226l-35.696,20.609c-2.13,1.23-3.856,4.22-3.856,6.679v7.803
				c-0.001,2.459,1.725,3.456,3.856,2.226l35.696-20.609C115.693,253.948,117.42,250.958,117.42,248.499z"/>
			<path d="M163.862,303.8v-7.803c0-2.459-1.726-3.456-3.856-2.226L124.31,314.38c-2.13,1.229-3.856,4.22-3.856,6.679l-0.001,7.803
				c0,2.459,1.727,3.456,3.856,2.226l35.697-20.609C162.136,309.25,163.862,306.259,163.862,303.8z"/>
			<path d="M286.183,217.348l35.696-20.609c2.13-1.23,3.857-4.22,3.857-6.679v-7.803c0-2.459-1.727-3.456-3.857-2.226
				l-35.696,20.609c-2.13,1.23-3.856,4.22-3.856,6.679v7.803C282.327,217.582,284.053,218.579,286.183,217.348z"/>
			<path d="M310.08,224.011l35.697-20.61c2.129-1.229,3.856-4.22,3.856-6.679v-7.803c0-2.459-1.727-3.456-3.856-2.227
				l-35.697,20.609c-2.13,1.23-3.856,4.22-3.856,6.679v7.803C306.223,224.244,307.95,225.24,310.08,224.011z"/>
			<path d="M282.327,107.201v7.803c0,2.459,1.726,3.456,3.856,2.226l35.696-20.609c2.13-1.23,3.857-4.22,3.857-6.679v-7.803
				c0-2.459-1.727-3.456-3.857-2.226l-35.696,20.609C284.053,101.752,282.327,104.742,282.327,107.201z"/>
			<path d="M306.541,32.954c-2.129,1.229-3.856,4.22-3.856,6.679v7.802c0,2.459,1.726,3.456,3.856,2.227l28.345-16.366
				c-5.944-2.346-11.971-4.436-18.062-6.28L306.541,32.954z"/>
			<path d="M299.333,72.31l-35.696,20.609c-2.13,1.23-3.856,4.22-3.856,6.679v7.803c0,2.459,1.726,3.455,3.856,2.226l35.696-20.61
				c2.13-1.229,3.856-4.219,3.856-6.679v-7.803C303.189,72.076,301.463,71.08,299.333,72.31z"/>
			<path d="M349.633,106.849c0-2.459-1.727-3.456-3.856-2.226l-35.697,20.609c-2.13,1.23-3.856,4.22-3.856,6.679v7.803
				c0,2.459,1.727,3.456,3.856,2.226l35.697-20.61c2.129-1.23,3.856-4.22,3.856-6.679V106.849z"/>
			<path d="M438.661,133.155l-35.696,20.609c-2.13,1.23-3.856,4.22-3.857,6.679v7.803c0,2.459,1.726,3.456,3.856,2.226
				l35.697-20.609c2.129-1.229,3.856-4.22,3.856-6.679v-7.803C442.517,132.922,440.79,131.925,438.661,133.155z"/>
			<path d="M438.147,113.012l-12.637,7.321c-2.129,1.23-3.856,4.22-3.856,6.679v7.803c0,2.459,1.727,3.455,3.856,2.226
				l20.796-12.036C443.584,120.735,440.852,116.726,438.147,113.012z"/>
			<path d="M256.747,168.191v-7.802c0-2.459-1.726-3.456-3.856-2.227l-35.696,20.609c-2.13,1.23-3.856,4.22-3.856,6.679v7.803
				c0,2.459,1.726,3.456,3.856,2.227l35.696-20.609C255.021,173.64,256.747,170.65,256.747,168.191z"/>
			<path d="M392.218,77.854l-35.696,20.61c-2.129,1.229-3.856,4.22-3.856,6.679v7.802c0,2.459,1.726,3.456,3.856,2.227l35.696-20.61
				c2.131-1.229,3.857-4.22,3.857-6.679V80.08C396.075,77.621,394.349,76.624,392.218,77.854z"/>
			<path d="M228.994,233.57l-35.696,20.609c-2.13,1.23-3.856,4.22-3.856,6.679l-0.001,7.803c0,2.459,1.727,3.456,3.856,2.226
				l35.697-20.609c2.13-1.23,3.856-4.219,3.856-6.679v-7.803C232.85,233.337,231.124,232.34,228.994,233.57z"/>
			<path d="M42.896,382.918c2.13-1.23,3.856-4.22,3.856-6.679v-7.803c0-2.459-1.726-3.456-3.856-2.226l-16.529,9.542
				c1.907,4.512,4.001,8.874,6.29,13.077L42.896,382.918z"/>
			<path d="M375.212,153.781v7.803c0,2.459,1.726,3.456,3.856,2.226l35.697-20.609c2.129-1.23,3.856-4.22,3.856-6.679v-7.803
				c0-2.459-1.727-3.455-3.856-2.226l-35.696,20.609C376.938,148.331,375.212,151.322,375.212,153.781z"/>
		</g>
	</g>
</g>
<g id="Shadows">
	<path id="Shadow_00000079452166293119938740000010504437374775236508_" style="opacity:0.15;" d="M169.491,404.329
		c-0.391-0.227-0.807-0.43-1.234-0.621l0.15-0.087l-69.991-38.297V339.55l-15.754,9.089v25.773l64.938,35.532
		c0.144,1.778,1.376,3.55,3.74,4.905c5.002,2.902,13.132,2.902,18.152,0c2.518-1.444,3.77-3.36,3.77-5.268
		C173.261,407.688,172.009,405.773,169.491,404.329z"/>
	<path id="Shadow_00000138553568857896068050000008902371670165679495_" style="opacity:0.15;" d="M148.938,416.727
		c-0.391-0.227-0.807-0.43-1.234-0.622l0.15-0.087l-69.991-38.297v-25.773l-15.754,9.089v25.773l64.938,35.532
		c0.144,1.778,1.376,3.549,3.739,4.905c5.002,2.902,13.132,2.902,18.152,0c2.518-1.444,3.77-3.36,3.77-5.268
		C152.708,420.086,151.456,418.171,148.938,416.727z"/>
	<path id="Shadow_10_" style="opacity:0.15;" d="M387.177,462.28c-5.859-3.712-13.371-6.897-22.321-9.462
		c-10.06-2.883-21.956-4.997-30.514-8.485c-11.122-4.533-16.098-11.242-16.434-18.681c-0.191-4.214,1.603-9.182,10.587-13.635
		c2.301-1.14,5.145-2.244,8.292-2.866c4.622-0.913,8.793-0.598,12.188-0.095c18.113,2.685,26.665,9.66,33.638,16.634
		c6.973,6.973,14.708,10.469,28.493,15.976c5.9,2.357,12.185,4.589,17.789,7.029c0.045,0.02,0.091,0.04,0.136,0.059
		c2.832,1.242,5.909,2.327,8.208,3.768c3.666,2.3,6.955,4.745,8.577,7.607c1.622,2.863,1.514,6.178-1.501,9.714
		c-0.776,0.91-1.817,1.878-3.72,2.701c-1.609,0.696-3.677,1.213-5.693,1.581c-4.108,0.75-8.155,0.947-11.625,0.785
		c-3.47-0.162-6.416-0.666-9.154-1.251C402.183,471.106,394.172,466.713,387.177,462.28z"/>
</g>
<g id="Pipelines">
	<g id="Pipes_1_">
		<g id="Drain_6_">
			<g>
				<g>
					<path style="fill:#455A64;" d="M95.561,335.787l5.136,2.965L90.403,356.58l-5.146-2.971v-0.001
						c-1.317-0.76-2.131-2.391-2.131-4.711c0-4.642,3.259-10.286,7.279-12.607C92.42,335.127,94.243,335.02,95.561,335.787z"/>
				</g>
				<g>
					<path style="fill:#263238;" d="M88.272,351.868c0-4.642,3.259-10.285,7.279-12.607c4.02-2.321,7.278-0.44,7.278,4.202
						c0,4.642-3.259,10.286-7.279,12.607C91.53,358.391,88.272,356.509,88.272,351.868z"/>
				</g>
				<g style="opacity:0.3;">
					<path d="M90.404,350.637c0-3.282,2.304-7.273,5.146-8.914c2.843-1.641,5.147-0.311,5.146,2.971
						c0,3.283-2.304,7.273-5.147,8.914C92.708,355.249,90.404,353.919,90.404,350.637z"/>
				</g>
				<g style="opacity:0.3;">
					<path d="M97.058,342.593c0,3.283-2.305,7.273-5.147,8.914c-0.458,0.265-0.893,0.425-1.316,0.539
						c-0.112-0.423-0.191-0.88-0.191-1.409c0-3.282,2.304-7.273,5.146-8.914c0.458-0.264,0.894-0.425,1.317-0.539
						C96.979,341.607,97.058,342.065,97.058,342.593z"/>
				</g>
			</g>
			<g>
				<path style="fill:#455A64;" d="M91.912,353.978l60.33,34.871c0.566,0.327,0.915,0.931,0.915,1.584v5.047l0.001,15.586h14.561
					v-17.904h-0.005v-4.649c0-4.668-2.491-8.982-6.533-11.316l-61.987-35.828c-0.932-0.543-2.221-0.469-3.645,0.354
					c-2.842,1.641-5.146,5.632-5.146,8.914c0,1.644,0.579,2.797,1.513,3.333L91.912,353.978z"/>
			</g>
			<path style="fill:#37474F;" d="M167.716,389.201c0-1.036-0.129-2.052-0.364-3.035c0.052,0.398,0.21,3.175-5.145,4.956
				c-5.778,1.921-9.049,0-9.049,0v5.047l0.001,14.898h14.56v-17.216h-0.004V389.201z"/>
			<g style="opacity:0.3;">
				<path d="M91.912,353.978l60.33,34.871c0.566,0.327,0.915,0.931,0.915,1.584v5.047l0.001,15.586h5.397V395.68h-0.003v-1.999
					c0-4.668-2.491-8.982-6.532-11.316l-60.825-35.157c-0.457,1.151-0.791,2.322-0.791,3.429c0,1.644,0.579,2.797,1.513,3.333
					L91.912,353.978z"/>
			</g>
			<g>
				<g>
					<path style="fill:#263238;" d="M170.745,402.793v5.945c0,1.534-1.006,3.069-3.03,4.229c-4.036,2.334-10.574,2.334-14.597,0
						c-2.025-1.161-3.03-2.695-3.03-4.217v-5.958h3.069c0,0.735,0.31,1.457,0.967,2.102c0.078,0.078,0.155,0.155,0.245,0.232
						c0.258,0.219,0.541,0.438,0.89,0.645c2.849,1.651,7.466,1.651,10.316,0c0.348-0.207,0.632-0.426,0.89-0.645
						c0.09-0.077,0.167-0.155,0.245-0.232c0.658-0.645,1.006-1.367,1.006-2.102H170.745z"/>
				</g>
				<g>
					<path style="fill:#455A64;" d="M170.745,402.793c0,1.522-1.006,3.056-3.03,4.217c-4.036,2.321-10.574,2.321-14.597,0
						c-2.025-1.161-3.03-2.695-3.03-4.217s1.006-3.056,3.03-4.217c0.013-0.013,0.026-0.013,0.038-0.026v4.243l0,0
						c0,0.735,0.31,1.457,0.967,2.102c0.078,0.078,0.155,0.155,0.245,0.232c0.258,0.219,0.541,0.438,0.89,0.645
						c2.849,1.651,7.466,1.651,10.316,0c0.348-0.207,0.632-0.426,0.89-0.645c0.09-0.077,0.167-0.155,0.245-0.232
						c0.658-0.645,1.006-1.367,1.006-2.102v-4.217C169.739,399.737,170.745,401.271,170.745,402.793z"/>
				</g>
			</g>
		</g>
		<g id="Drain_5_">
			<g>
				<g>
					<path style="fill:#455A64;" d="M74.544,347.928l5.135,2.965L69.386,368.72l-5.146-2.971v-0.001
						c-1.317-0.76-2.131-2.391-2.131-4.712c0-4.642,3.259-10.285,7.279-12.607C71.402,347.267,73.226,347.16,74.544,347.928z"/>
				</g>
				<g>
					<path style="fill:#263238;" d="M67.255,364.008c0-4.641,3.259-10.285,7.279-12.607c4.02-2.321,7.278-0.44,7.277,4.202
						c0,4.642-3.259,10.286-7.279,12.607C70.513,370.531,67.255,368.65,67.255,364.008z"/>
				</g>
				<g style="opacity:0.3;">
					<path d="M69.387,362.777c0-3.282,2.304-7.273,5.146-8.914c2.843-1.642,5.146-0.311,5.146,2.971
						c0,3.282-2.304,7.273-5.147,8.914C71.691,367.389,69.387,366.059,69.387,362.777z"/>
				</g>
				<g style="opacity:0.3;">
					<path d="M76.04,354.733c0,3.283-2.304,7.273-5.146,8.914c-0.458,0.264-0.894,0.425-1.316,0.539
						c-0.112-0.423-0.191-0.88-0.191-1.409c0-3.282,2.304-7.273,5.146-8.914c0.458-0.264,0.894-0.425,1.316-0.539
						C75.961,353.747,76.04,354.204,76.04,354.733z"/>
				</g>
			</g>
			<g>
				<path style="fill:#455A64;" d="M70.896,366.118l60.33,34.871c0.566,0.327,0.914,0.931,0.914,1.585v5.047l0.001,14.898h14.56
					v-17.216h-0.004v-4.65c0-4.668-2.49-8.982-6.532-11.316L78.178,353.51c-0.932-0.543-2.22-0.47-3.645,0.354
					c-2.842,1.641-5.145,5.632-5.145,8.914c0,1.644,0.578,2.797,1.513,3.333L70.896,366.118z"/>
			</g>
			<path style="fill:#37474F;" d="M146.698,400.653c0-1.036-0.129-2.052-0.364-3.035c0.052,0.398,0.21,3.175-5.145,4.956
				c-5.778,1.921-9.049,0-9.049,0v5.047l0.001,14.898h14.56v-17.216h-0.004V400.653z"/>
			<g style="opacity:0.3;">
				<path d="M70.896,366.118l60.33,34.871c0.566,0.327,0.914,0.931,0.914,1.585v5.047l0.001,14.898h5.397V407.82h-0.004v-2
					c0-4.668-2.491-8.982-6.533-11.316l-60.825-35.157c-0.456,1.151-0.789,2.322-0.789,3.429c0,1.644,0.578,2.797,1.513,3.333
					L70.896,366.118z"/>
			</g>
			<g>
				<g>
					<path style="fill:#263238;" d="M149.728,414.933v5.945c0,1.534-1.006,3.069-3.03,4.229c-4.036,2.334-10.574,2.334-14.598,0
						c-2.025-1.161-3.03-2.695-3.03-4.217v-5.958h3.069c0,0.735,0.31,1.457,0.967,2.102c0.077,0.078,0.155,0.155,0.245,0.232
						c0.258,0.219,0.542,0.438,0.89,0.645c2.85,1.651,7.467,1.651,10.316,0c0.348-0.207,0.633-0.426,0.89-0.645
						c0.09-0.077,0.167-0.155,0.245-0.232c0.657-0.645,1.006-1.367,1.006-2.102H149.728z"/>
				</g>
				<g>
					<path style="fill:#455A64;" d="M149.728,414.933c0,1.522-1.006,3.056-3.03,4.217c-4.036,2.321-10.574,2.321-14.598,0
						c-2.025-1.161-3.03-2.695-3.03-4.217c0-1.522,1.005-3.056,3.03-4.217c0.013-0.013,0.026-0.013,0.039-0.026v4.243l0,0
						c0,0.735,0.31,1.457,0.967,2.102c0.077,0.078,0.155,0.155,0.245,0.232c0.258,0.219,0.542,0.438,0.89,0.645
						c2.85,1.651,7.467,1.651,10.316,0c0.348-0.207,0.633-0.426,0.89-0.645c0.09-0.077,0.167-0.155,0.245-0.232
						c0.657-0.645,1.006-1.367,1.006-2.102v-4.217C148.722,411.877,149.728,413.411,149.728,414.933z"/>
				</g>
			</g>
		</g>
	</g>
</g>
<g id="Light_00000026144820776378738360000000848422082154837673_">
	<g id="Light_00000015323164411718137100000006287895056206510518_">
		<g id="Wall">
			<path style="fill:#BA68C8;" d="M241.448,118.879c0-31.003-10.883-52.787-28.479-62.945c-17.596-10.158-41.904-8.689-68.754,6.813
				c-53.7,31.005-97.233,106.406-97.233,168.412c0,31.003,10.883,52.787,28.479,62.945c17.596,10.158,41.904,8.689,68.754-6.813
				C197.915,256.286,241.448,180.885,241.448,118.879z"/>
			<path style="opacity:0.95;fill:#FFFFFF;" d="M241.448,118.879c0-31.003-10.883-52.787-28.479-62.945
				c-17.596-10.158-41.904-8.689-68.754,6.813c-53.7,31.005-97.233,106.406-97.233,168.412c0,31.003,10.883,52.787,28.479,62.945
				c17.596,10.158,41.904,8.689,68.754-6.813C197.915,256.286,241.448,180.885,241.448,118.879z"/>
			<g style="opacity:0.2;">
				<path style="fill:#BA68C8;" d="M89.667,272.843l-23.903,13.8c2.944,2.935,6.184,5.434,9.696,7.462
					c1.079,0.623,2.184,1.201,3.312,1.736l10.894-6.289c2.13-1.23,3.856-4.22,3.856-6.679v-7.803
					C93.523,272.61,91.797,271.613,89.667,272.843z"/>
				<path style="fill:#BA68C8;" d="M143,131.29c0,2.459,1.726,3.456,3.856,2.226l35.696-20.609c2.13-1.23,3.856-4.22,3.856-6.679
					v-7.803c0-2.459-1.726-3.456-3.856-2.226l-35.696,20.609c-2.13,1.23-3.856,4.22-3.856,6.679V131.29z"/>
				<path style="fill:#BA68C8;" d="M182.552,137.233l-35.696,20.609c-2.13,1.229-3.856,4.22-3.856,6.679v7.803
					c0,2.459,1.726,3.456,3.856,2.227l35.696-20.609c2.13-1.229,3.856-4.22,3.856-6.679v-7.803
					C186.408,137.001,184.682,136.004,182.552,137.233z"/>
				<path style="fill:#BA68C8;" d="M117.42,84.358v-1.82c-5.001,4.539-9.834,9.437-14.47,14.627l10.614-6.128
					C115.693,89.807,117.42,86.817,117.42,84.358z"/>
				<path style="fill:#BA68C8;" d="M205.801,226.34l-35.049,20.236c-2.13,1.229-3.856,4.22-3.856,6.679v7.803
					c0,2.459,1.726,3.456,3.856,2.227l11.018-6.362C190.501,247.656,198.584,237.336,205.801,226.34z"/>
				<path style="fill:#BA68C8;" d="M217.195,178.771c-2.13,1.23-3.856,4.22-3.856,6.679v7.803c0,2.459,1.726,3.456,3.856,2.227
					l7.747-4.473c3.071-7.042,5.763-14.184,8.036-21.348L217.195,178.771z"/>
				<path style="fill:#BA68C8;" d="M117.42,248.499v-7.803c0-2.459-1.726-3.456-3.856-2.226l-35.696,20.609
					c-2.13,1.23-3.856,4.22-3.856,6.679v7.803c-0.001,2.459,1.725,3.456,3.856,2.226l35.697-20.609
					C115.693,253.948,117.42,250.958,117.42,248.499z"/>
				<path style="fill:#BA68C8;" d="M136.109,164.003l-35.696,20.61c-2.13,1.229-3.856,4.22-3.857,6.679v7.803
					c0,2.459,1.727,3.456,3.856,2.226l35.697-20.609c2.13-1.23,3.856-4.22,3.856-6.679v-7.803
					C139.965,163.77,138.239,162.773,136.109,164.003z"/>
			</g>
		</g>
		<g id="Light">
			<path style="opacity:0.2;fill:#BA68C8;" d="M303.463,266.595l-192.025,33.079v-0.01c-13.66,2.25-25.92,0.25-35.98-5.56
				c-17.59-10.16-28.48-31.94-28.48-62.94c0-62.01,43.54-137.41,97.24-168.42c26.85-15.5,51.16-16.97,68.75-6.81
				c10.06,5.81,17.92,15.42,22.81,28.38l0.01-0.01L303.463,266.595z"/>
			<path style="opacity:0.2;fill:#FFFFFF;" d="M303.463,266.595l-192.025,33.079v-0.01c-13.66,2.25-25.92,0.25-35.98-5.56
				c-17.59-10.16-28.48-31.94-28.48-62.94c0-62.01,43.54-137.41,97.24-168.42c26.85-15.5,51.16-16.97,68.75-6.81
				c10.06,5.81,17.92,15.42,22.81,28.38l0.01-0.01L303.463,266.595z"/>
		</g>
	</g>
</g>
<g id="Character">
	<g id="Character_6_">
		<g id="Arm_00000110467106705265583460000017589251191091999113_">
			<path id="Arm_13_" style="fill:#FFA8A7;" d="M432.875,261.2c-0.001-0.001-9.745-23.108-9.745-23.108
				c-4.659-11.914-2.905-28.015-2.905-28.015c5.61-0.103,10.868,1.802,14.501,8.387c3.633,6.585,10.821,30.045,12.467,35.093
				c1.687,5.693,2.086,7.93,2.394,13.566c0.32,5.873-1.177,16.7-1.564,22.549c-0.179,2.706-0.156,5.301-0.146,8.037
				c0.011,2.852-0.72,5.596-1.1,8.424c-0.176,1.306-0.829,2.618-1.654,3.641c-0.543,0.673-1.401,0.892-1.918,1.526
				c-0.535,0.657-0.5,1.559-1.271,2.14c-0.857,0.647-1.997,0.55-2.733,1.189c-0.77,0.668-1.362,1.542-2.243,2.137
				c-0.794,0.536-1.406,0.804-1.93,1.648c-0.429,0.692-0.707,2.111-1.698,2.194c-1.111,0.093-1.481-0.93-1.706-1.831
				c-0.397-1.59,0.101-3.784,0.826-5.231c0.841-1.677,1.28-3.528,2.313-5.104c0.936-1.426,1.28-3.341,1.474-5.042
				c0.136-1.189-0.236-2.613-1.569-1.686c-1.571,1.093-3.082,3.062-5.202,3.089c-1.467,0.018-1.752-1.087-1.096-2.176
				c1.099-1.825,1.998-3.624,2.827-5.604c0.824-1.97,1.43-4.009,2.307-5.95c0.456-1.009,1.043-1.997,1.634-2.945
				c1.654-2.651,1.001-5.732,0.706-8.651C435.435,275.404,433.767,266.367,432.875,261.2z"/>
			<path style="fill:#455A64;" d="M419.272,209.168c7.903,0.588,12.325,2.217,16.548,9.959s9.853,26.569,11.085,30.44
				c1.232,3.871,2.468,8.255,2.949,14.448c0.369,4.749,0.059,8.464,0.059,8.464s-1.073,2.073-7.407,2.073
				c-6.334,0-8.199-1.114-8.199-1.114l-2.007-12.083l-13.029-28.68V209.168z"/>
		</g>
		<g id="Bottom_15_">
			<g>
				<g id="XMLID_4947_">
					<g>
						<path style="fill:#263238;" d="M326.981,421.143c-0.641-0.28-1.175,1.333-1.014,2.241c0.461,2.609,2.965,6.065,7.423,8.676
							c4.458,2.611,14.261,4.381,17.144,5.193c2.883,0.811,7.327,3.843,10.016,5.217c4.897,2.502,8.897,2.214,11.124,1.1
							c0.873-0.436,1.248-1.377,1.495-2.211c0.585-1.98,0.541-2.432,0.317-2.487L326.981,421.143z"/>
						<g id="XMLID_4991_">
							<g id="XMLID_4994_">
								<path id="XMLID_4998_" style="fill:#37474F;" d="M374.774,432.965c-0.204,2.055-0.925,5.359-1.834,7.229
									c-1.07,1.269-2.938,1.584-4.348,1.572c-3.72-0.033-6.966-1.307-10.427-3.301c-2.075-1.195-4.337-2.49-7.06-3.207
									c-2.991-0.789-9.686-2.224-12.648-3.139c-2.515-0.776-5.562-2.323-7.523-4.138c-1.656-1.534-3.96-4.491-4.129-6.212
									c0.502-3.737,1.541-5.722,3.962-6.26c2.557-0.569,5.709,0.174,10.058,1.224c1.302,0.315,2.929,0.76,3.632,0.904
									c2.661,0.547,5.125,1.131,7.114,1.637c1.703,0.434,3.377,0.839,5.141,0.503c0.841-0.16,1.505-0.388,2.078-1.022
									c0.698-0.773,1.114-2.093,1.928-1.913c0.001,0,13.737,7.167,14.875,7.667C376.905,425.085,375.39,426.739,374.774,432.965z"
									/>
								<g id="XMLID_00000068650147016421328410000008623880180518325633_">
									<path style="fill:#FFFFFF;" d="M326.805,421.768c0.223-2.597,1.136-6.003,4.198-6.41c4.58-0.62,9.056,1.254,13.454,2.279
										c0,0-5.339-1.227-5.339-1.227C332.959,415.118,327.738,413.675,326.805,421.768L326.805,421.768z"/>
								</g>
							</g>
						</g>
						<path style="fill:#FAFAFA;" d="M343.376,417.139c-0.514,0.144-1.135,0.595-1.482,0.925c-0.477,0.454-0.858,0.914-1.212,1.471
							c-0.433,0.68,0.434,1.122,1.066,0.387c0.433-0.503,0.895-1.083,1.694-1.681c0.382-0.286,1.117-0.584,1.553-0.493
							c0.329,0.069,0.76,0.161,0.76,0.161C345.735,417.295,344.059,416.948,343.376,417.139z"/>
						<path style="fill:#FAFAFA;" d="M350.182,418.493c-0.501-0.226-0.97-0.224-1.502-0.026c-0.628,0.234-1.117,0.69-1.525,1.202
							c-0.331,0.416-1.074,1.517-1.293,2.005c-0.207,0.46,0.92,0.806,1.21,0.326c0.286-0.474,0.838-1.344,1.218-1.814
							c0.234-0.289,1.22-1.353,2.034-1.228l0.356,0.092c0.056-0.165-0.128-0.35-0.271-0.437
							C350.336,418.568,350.26,418.528,350.182,418.493z"/>
						<path style="fill:#FAFAFA;" d="M354.066,419.624c-0.417,0.011-0.664-0.022-1.011,0.217c-0.327,0.225-0.749,0.623-0.972,0.957
							c-0.618,0.923-0.795,1.38-1.099,2.24c-0.215,0.609,0.956,0.808,1.126,0.41c0.538-1.256,0.812-2.102,1.732-2.849
							c0.758-0.615,1.292-0.701,1.292-0.701c0.005-0.119-0.156-0.187-0.27-0.204C354.686,419.668,354.246,419.619,354.066,419.624z"
							/>
					</g>
					<path id="XMLID_4970_" style="fill:#FFA8A7;" d="M381.03,409.259c0,0-4.313,13.088-5.627,16.074
						c-0.42,0.954-2.414,0.746-3.51,0.853c-1.096,0.107-2.827,0.279-3.918,0.833c-3.228,1.638-5.252,1.612-5.35-3.115
						c-0.02-0.968-0.458-1.525-1.64-1.68c-0.885-0.116-1.853-0.02-2.638-0.46c-0.102-0.126,0.04-0.3,0.168-0.4
						c0.991-0.753,1.535-1.258,1.97-3.071c1.346-5.605,2.045-10.431,3.511-17.311L381.03,409.259z"/>
				</g>
				<g>
					<path id="XMLID_4912_" style="fill:#263238;" d="M391.415,279.782c0,0-6.586,7.893-10.568,22.655
						c-4.834,17.92-6.704,31.704-8.216,41.705c-0.95,6.284-1.65,10.77-3.358,22.216c-1.423,9.536-7.686,44.994-7.686,44.994
						s4.593,3.975,8.456,5.436c3.596,1.36,6.924,1.903,8.245,1.36c0,0,4.431-11.378,9.915-26.277
						c3.449-9.368,5.352-16.139,6.311-21.034c0.717-3.685,0.543-10.243,0.473-13.554l29.46-45.508c0,0,2.939-3.06,5.501-9.491
						c3.875-9.726-1.073-23.742-1.073-23.742L391.415,279.782z"/>
					<g id="XMLID_00000123419742805612027090000001503324681635417004_">
						<path style="fill:#FFFFFF;" d="M380.848,302.437c-4.699,17.561-7.247,36.381-9.881,54.388
							c-2.701,17.657-6.25,36.877-9.379,54.527c2.759-17.739,6.315-36.904,8.886-54.601
							C373.248,338.752,375.773,319.922,380.848,302.437L380.848,302.437z"/>
					</g>
					<path d="M420.41,292.558h-36.184c-1.194,2.842-2.37,6.138-3.379,9.879c-4.323,16.026-6.274,28.735-7.72,38.398
						c0.88,5.923,1.876,11.998,2.799,16.189c2.43,11.037,3.949,18.834,5.873,23.39c1.92,4.547,6.541,11.001,6.56,11.027
						c3.346-9.139,5.213-15.788,6.157-20.605c0.717-3.685,0.543-10.243,0.473-13.554l21.397-33.053l1.664-10.24
						C423.517,305.079,422.909,298.396,420.41,292.558z"/>
				</g>
			</g>
			<g>
				<g>
					<path style="fill:#FFA8A7;" d="M433.058,429.88c-1.859-2.971-2.863-8.693-6.951-20.318l-15.909,13.042l9.433,14.991
						c0.494,0.848,0.512,2.125,0.685,2.374C422.339,442.882,433.058,429.88,433.058,429.88z"/>
					<g>
						<path style="fill:#37474F;" d="M438.673,436.218c-0.023-0.172,0.068-1.572,0.024-1.74c-0.394-1.509-1.326-1.926-2.523-2.769
							c-1.484-1.045-2.922-2.296-3.303-2.824c-0.401-0.556-0.478-0.843-1.1-1.096c-1.06-0.431-2.764-0.466-4.863,0.637
							c-3.439,1.807-4.489,3.982-4.291,6.34c0.151,1.798,0.301,4.189-1.284,5.258c-0.66,0.445-1.701-2.428-1.701-2.428
							c-0.978,1.638,0.395,3.905,1.112,7.224c0.491,2.277,0.371,3.267,0.096,5.58c-0.347,2.913-0.751,2.901-2.297,3.104
							c-1.332,0.175-5.111-0.078-7.41,1.527c-3.168,2.212-2.321,5.157-2.321,5.157c0.41,1.12,3.855,6.552,16.443,4.524
							c3.651-0.588,11.321-6.329,11.204-6.865c-0.109-0.499,0.012-1.146,0.029-1.649c0.044-1.287,0.099-2.573,0.156-3.86
							c0.051-1.173-0.068-2.537,0.214-3.677c0.251-1.014,0.37-1.986,0.469-3.041c0.241-2.584,0.482-5.168,0.722-7.752
							C438.116,437.123,438.773,436.953,438.673,436.218z"/>
						<path id="XMLID_4942_" d="M440.258,435.708c1.241,1.201,0.486,4.687-1.178,8.87c-0.738,1.855-2.114,5.05-1.71,8.446
							c0.404,3.395,0.475,5-0.4,6.591c-1.369,2.49-8.687,5.676-13,6.673c0,0,3.952-4.96,4.385-12.455
							c0.434-7.495,1.006-12.327,4.433-15.65C437.121,433.979,440.258,435.708,440.258,435.708z"/>
						<path id="XMLID_4939_" style="fill:#263238;" d="M408.81,460.187c0,0,2.525,4.729,12.263,4.575
							c3.833-0.061,5.885-1.928,5.98-7.755c0.114-7.023,0.679-14.115,2.95-17.601c2.271-3.486,5.888-5.177,8.695-4.928
							c0.488,0.078,1.104,0.543,1.561,1.23c0,0-2.809-0.923-7.178,2.703c-3.226,2.677-4.098,8.269-4.049,15.213
							c0.021,2.988,0.203,6.377-0.673,8.644c-0.807,2.09-2.595,3.522-4.65,4.099c-5.295,1.487-12.54-0.964-14.373-3.202
							C408.284,461.674,408.81,460.187,408.81,460.187z"/>
						<g>
							<path id="XMLID_4938_" style="fill:#FAFAFA;" d="M420.508,452.228c0,0-0.71,0.502-0.788,1.162
								c-0.077,0.66,0.151,2.186,1.534,3.049c0.586,0.366,1.098,0.238,0.166-0.993C420.49,454.216,420.508,452.228,420.508,452.228z
								"/>
							<path id="XMLID_4937_" style="fill:#FAFAFA;" d="M421.032,448.594c0,0-0.309,0.2-0.387,1.175
								c-0.042,0.524,0.772,2.631,1.797,3.134c1.025,0.502,0.47-0.679,0.026-1.259C421.981,451.007,421.122,449.561,421.032,448.594
								z"/>
							<path id="XMLID_4936_" style="fill:#FAFAFA;" d="M420.687,444.578c0,0-0.333,0.092,0.023,1.436
								c0.12,0.453,1.462,1.784,2.123,1.863c0.661,0.079,0.981-0.251,0.171-0.839C422.364,446.575,420.811,445.23,420.687,444.578z"
								/>
						</g>
					</g>
				</g>
				<g>
					<path id="XMLID_4911_" style="fill:#263238;" d="M414.27,279.782c1.72,1.762,6.002,7.667,6.7,16.756
						c0.296,3.848-0.799,11.103-5.295,16.561c-1.375,20.16-2.685,58.222-2.685,58.222c4.679,6.608,5.864,10.848,8.948,20.68
						c1.872,5.969,8.356,29.658,8.356,29.658c-9.483,1.426-15.241,9.765-15.241,9.765s-13.145-21.17-21.888-35.904
						c-6.395-10.778-8.592-15.422-10.737-21.534c-1.971-5.616-3.396-12.418-5.317-25.536c-1.921-13.118-3.803-30.393-4.743-43.306
						c-0.94-12.913-0.399-26.412-0.399-26.412L414.27,279.782z"/>
				</g>
				<g id="XMLID_00000074415760751134186500000008298629638281183651_">
					<path style="fill:#FFFFFF;" d="M415.054,431.424c-4.535-7.175-13.484-21.62-17.873-28.876
						c-5.753-9.727-12.162-19.267-15.504-30.176c-2.731-11.008-4.633-22.184-6.026-33.43c-1.408-11.234-2.534-22.504-3.282-33.8
						c0.457,5.641,1.012,11.274,1.631,16.899c1.786,16.854,3.96,33.757,8.156,50.196c3.265,10.849,9.629,20.428,15.308,30.14
						C397.464,402.378,415.054,431.424,415.054,431.424L415.054,431.424z"/>
				</g>
				<path d="M431.361,295.582c-1.308-0.374-3.168-1.624-3.871-2.748c-0.422-0.676-0.677-1.637-1-2.854
					c-0.353-1.328-0.792-2.983-1.627-4.845l-0.996,0.445c0.798,1.783,1.207,3.322,1.567,4.68c0.348,1.306,0.62,2.337,1.13,3.151
					c0.835,1.337,2.998,2.85,4.702,3.258C431.304,296.308,431.337,295.946,431.361,295.582z"/>
				<path d="M405.469,307.135c0.277-0.007,0.514-0.03,0.697-0.07c1.583-0.35,2.813-1.412,5.263-4.546
					c1.866-2.387,1.674-4.101,1.36-6.941c-0.116-1.042-1.215-6.615-1.284-8.085l-1.047,0.582c0.072,1.503,1.128,6.565,1.245,7.623
					c0.313,2.823,0.455,4.112-1.135,6.148c-2.266,2.898-3.349,3.868-4.638,4.153c-1.249,0.282-6.782-0.636-8.257-1.655
					c-0.851-0.592-2.278-7.877-3.111-14.288l-1.082,0.141c0.421,3.241,1.923,13.904,3.572,15.044
					C398.517,306.253,403.27,307.192,405.469,307.135z"/>
			</g>
		</g>
		<g id="Top_18_">
			<g>
				<polygon id="XMLID_28792_" style="fill:#FFA8A7;" points="394.897,203.288 396.889,217.872 416.7,216.864 414.557,201.07 				
					"/>
				<g id="XMLID_28787_">
					<g id="XMLID_28790_">
						<path id="XMLID_28791_" style="fill:#F28F8F;" d="M387.009,176.017c-1.522,1.935-6.178,7.194-7.009,8.569l4.436,2.696
							L387.009,176.017z"/>
						<g id="XMLID_00000062188900723951322190000015585121537373801912_">
							<path style="fill:#FFFFFF;" d="M387.009,176.016c-2.023,3.104-4.598,5.774-7.009,8.569
								C381.861,181.382,384.462,178.685,387.009,176.016L387.009,176.016z"/>
						</g>
					</g>
					<g id="XMLID_28788_">
						<path id="XMLID_28789_" style="fill:#FFA8A7;" d="M398.024,161.35c-6.122-0.658-10.092,3.681-11.871,16.709
							c-0.07,0.51-0.825,1.312-1.397,3.261c-2.453,8.362-1.081,16.323,0.333,18.441c3.547,2.852,7.489,3.916,13.201,3.43
							c4.354-0.37,15.455-1.692,21.086-7.57c6.622-6.915,9.966-17.336,5.263-22.743C418.019,165.268,401.397,161.713,398.024,161.35
							z"/>
					</g>
					<g id="XMLID_00000050624453743798940010000013026193603082111895_">
						<path style="fill:#FFFFFF;" d="M398.024,161.35c-9.204-0.77-10.477,10.471-11.79,17.215
							c-2.51,4.754-2.895,10.468-2.507,15.757c0.205,1.855,0.453,3.773,1.361,5.439c-0.982-1.63-1.318-3.551-1.604-5.411
							c-0.562-5.356-0.218-11.15,2.304-16.001C386.999,171.574,388.774,160.139,398.024,161.35L398.024,161.35z"/>
					</g>
					<path style="fill:#F28F8F;" d="M385.088,199.761c0.783,1.171,6.389,4.047,9.91,4.27l-0.332-2.74
						C394.667,201.292,389.909,201.273,385.088,199.761z"/>
				</g>
				<g id="XMLID_28783_">
					<g id="XMLID_28784_">
						<g id="XMLID_28785_">
							<path id="XMLID_28786_" style="fill:#455A64;" d="M396.815,184.183c0.425,0.996,1.435,1.085,2.045,0.338
								c0.733-0.896,1.306-1.862,2.234-2.589c1.073-0.84,2.426-1.382,3.784-1.279c5.139,0.391,3.885,7.16,1.362,9.516
								c-4.129,3.855-6.323,0.525-6.323,0.525s-2.963,6.548,1.357,10.374c0,0,7.458,3.224,13.315,1.406
								c4.383-4.722,7.314-7.701,10.261-11.762c6.98-9.624,6.99-19.139,2.514-21.861c0.252-3.416-1.597-8.548-8.609-11.512
								c-6.683-2.825-11.154-2.545-15.986-2.276c-4.831,0.269-10.77,2.473-15.254-1.275c-1.124,2.688-0.837,5.921,0.743,8.369
								c-1.427-0.641-3.304,0.047-3.979,1.456c-0.676,1.41-0.035,3.304,1.358,4.014c-0.988,0.49-1.447,1.783-1.094,2.828
								c0.354,1.045,1.412,1.775,2.512,1.855c1.164,0.085,1.891-0.026,3.036-0.194c1.409,3.947,5.863,5.327,8.509,5.16
								c-0.074-0.014-0.417,0.541-0.466,0.613c-0.151,0.221-0.291,0.449-0.42,0.683c-0.257,0.469-0.469,0.963-0.632,1.472
								c-0.326,1.019-0.458,2.1-0.374,3.167C396.734,183.548,396.68,183.866,396.815,184.183z"/>
						</g>
					</g>
				</g>
				<g id="XMLID_00000119106570519754641850000011317648461380649140_">
					<path style="fill:#FFFFFF;" d="M387.513,153.788c-1.062,2.71-0.752,5.901,0.822,8.318l0.172,0.264l-0.289-0.128
						c-3.524-1.307-5.756,3.371-2.538,5.296c0,0,0.177,0.092,0.177,0.092l-0.178,0.087c-2.508,1.602-0.667,4.789,2.015,4.579
						c0.801,0.03,1.6-0.076,2.397-0.179c-1.186,0.19-2.412,0.41-3.609,0.157c-2.219-0.49-3.01-3.561-0.891-4.736
						c0,0-0.001,0.178-0.001,0.178c-3.513-2.061-1.096-7.087,2.705-5.645l-0.117,0.136
						C386.591,159.725,386.327,156.458,387.513,153.788L387.513,153.788z"/>
				</g>
			</g>
			<g>
				<path style="fill:#BA68C8;" d="M424.772,211.381c5.139,2.876,9.043,12.478,8.664,20.493c-0.239,5.072-2.022,18.17-3.541,29.749
					c-0.478,3.649,0.974,9.804,1.647,17.206c0.499,5.489,0.566,11.327,0.566,11.327s-6.887,8.525-25.793,9.638
					c-24.133,1.42-34.822-4.416-34.822-4.416s-0.148-19.664,0.433-35.236c0.862-23.092,0.911-29.848,4.521-37.709
					c1.194-2.324,2.443-7.498,6.375-8.52c3.115-0.809,10.302-2.531,13.147-2.964c4.666,1.201,16.763,1.302,19.76-1.251l-0.05-0.671
					C420.871,208.965,421.602,209.607,424.772,211.381z"/>
			</g>
			<g>
				<g>
					<path style="fill:#455A64;" d="M295.46,270.463c0.789,0.181,1.847-0.234,2.997-1.244c2.158-1.895,4.078-5.46,4.475-8.304
						c0.211-1.516-0.024-2.629-0.61-3.188c-0.373-0.356-4.187-3.999-4.737-4.524c-0.964-0.92-2.918-1.331-4.715-0.399
						c-3.967,2.058-7.183,8.028-6.721,12.473C286.359,267.291,294.957,270.347,295.46,270.463z"/>
					<path style="fill:#263238;" d="M302.682,260.454c-0.047-1.595-0.639-2.699-1.56-3.195s-2.168-0.384-3.526,0.454
						c-2.715,1.676-4.84,5.62-4.747,8.809c0.047,1.595,0.639,2.699,1.56,3.195c0.92,0.496,2.169,0.384,3.526-0.454
						C300.651,267.588,302.776,263.644,302.682,260.454z"/>
				</g>
				<g>
					<path style="fill:#455A64;" d="M327.48,284.209c0.552,0.28,1.291,0.205,2.086-0.288c1.577-0.979,2.803-3.254,2.753-5.11
						c-0.025-0.936-0.368-1.594-0.906-1.901c-0.328-0.187-29.647-16.91-30.12-17.18c-0.783-0.447-1.805-0.465-2.88,0.057
						c-2.172,1.055-3.697,3.884-3.383,6.278c0.155,1.185,0.733,2.029,1.537,2.437C297.052,268.749,327.143,284.038,327.48,284.209z"
						/>
					<path style="fill:#263238;" d="M332.319,278.811c-0.025-0.935-0.368-1.594-0.906-1.9c-0.542-0.309-1.281-0.261-2.088,0.22
						c-1.628,0.972-2.893,3.319-2.809,5.213c0.042,0.939,0.408,1.583,0.964,1.865c0.552,0.28,1.291,0.205,2.086-0.288
						C331.143,282.942,332.369,280.667,332.319,278.811z"/>
				</g>
			</g>
			<g id="Arm_19_">
				<path style="fill:#FFA8A7;" d="M365.251,274.353c2.723-0.909,4.725-4.067,8.634-12.178c4.872-10.109,7.508-12.381,11.087-22.72
					c3.005-7.575-0.969-21.532-2.817-24.447c-6.098,2.176-10.34,4.18-14.45,12.723c-3.696,7.682-11.087,23.174-14.45,29.989
					c0,0-19.618,4.23-24.889,4.583c-2.042,0.137-4.077-0.163-5.934-1.109c-1.137-0.579-2.26-0.847-3.567-0.843
					c-0.484,0.002-0.975,0.042-1.43,0.207c-0.897,0.325-1.55,1.083-2.235,1.746c-1.247,1.206-2.768,1.978-4.13,3.002
					c-1.588,1.194-3.463,2.016-5.069,3.209c-1.376,1.022-2.904,1.87-3.775,3.413c-0.144,0.255-0.272,0.526-0.314,0.816
					c-0.073,0.506,0.133,1.027,0.476,1.407c0.343,0.379,0.811,0.628,1.298,0.784c0.655,0.21,1.415,0.278,1.982,0.697
					c0.65,0.48,0.704,1.426,1.295,1.992c0.916,0.879,2.432,0.746,3.478,1.466c0.814,0.56,1.255,1.579,2.13,2.039
					c0.459,0.241,0.988,0.3,1.503,0.355c0.913,0.098,1.825,0.374,2.748,0.374c1.1-0.001,1.577-0.521,2.49-1.028
					c3.142-1.748,4.838-3.855,10.393-4.225C333.429,276.358,362.528,275.262,365.251,274.353z"/>
				<path style="fill:#455A64;" d="M382.741,213.914c-6.633,1.573-10.551,3.958-14.915,11.957
					c-4.04,7.406-14.956,31.093-14.956,31.093l-10.959,3.088c0,0-2.788,3.51-1.697,8.872c1.044,5.134,3.322,7.443,3.322,7.443
					s5.611-0.154,15.176-0.487c9.42-0.328,10.252-2.544,12.35-6.697c2.098-4.152,14.971-29.26,14.971-29.26
					S391.199,221.397,382.741,213.914z"/>
				<g>
					<path style="fill:#FFFFFF;" d="M395.969,210.95c-4.456,0.822-8.858,1.956-13.237,3.104c-2.774,0.568-6.612,2.003-9.042,4.226
						c-4.239,3.811-6.484,9.206-9.014,14.198c-3.978,8.139-7.748,16.381-11.594,24.584l-0.046,0.098l-0.103,0.029l-10.965,3.057
						c-5.338,0.817-11.022,2.604-16.422,2.103c-1.863-0.17-3.431-1.38-5.219-1.73c-0.88-0.146-1.822-0.208-2.673,0.01
						c-0.855,0.241-1.507,0.919-2.155,1.56c-2.767,2.479-6.078,4.167-9.164,6.14c-1.456,1.09-3.17,1.972-4.108,3.599
						c0.913-1.643,2.622-2.56,4.058-3.671c3.046-2.009,6.344-3.784,9.035-6.249c0.64-0.637,1.313-1.363,2.259-1.639
						c0.935-0.241,1.876-0.176,2.8-0.031c1.835,0.34,3.339,1.532,5.216,1.698c5.412,0.452,10.942-1.343,16.28-2.185
						c-0.077,0.02,10.948-3.118,10.933-3.114c0,0-0.148,0.127-0.148,0.127c3.773-8.242,7.674-16.423,11.672-24.559
						c2.572-5.013,4.868-10.431,9.167-14.249c2.603-2.223,6.04-3.697,9.336-4.203C386.664,212.779,391.688,211.702,395.969,210.95
						L395.969,210.95z"/>
				</g>
			</g>
		</g>
		<path id="Shadow" style="opacity:0.3;" d="M378.508,356.984c-4.56,17.04-7.92,34.41-10.02,51.93c-0.68,5.67-1.54,11.95-5.93,15.59
			c-3.37,2.79-8.02,3.31-12.38,3.63c-8.18,0.58-17.05,0.63-23.91-3.65c0.88,2.43,3.27,5.32,7.12,7.58
			c4.46,2.61,14.26,4.38,17.15,5.19c2.88,0.81,7.32,3.84,10.01,5.22c4.9,2.5,8.9,2.21,11.13,1.1c0.87-0.44,1.24-1.38,1.49-2.22
			c0.59-1.98,0.54-2.43,0.32-2.48l-0.01-0.01c0.64-1.86,1.13-4.27,1.3-5.9c0.59-6,2.01-7.75,0.94-8.39
			c0.57-1.44,1.43-3.86,2.29-6.35c0.09-0.03,0.2-0.04,0.28-0.08c0,0,4.43-11.38,9.92-26.27c0.37-1.01,0.72-1.99,1.06-2.94
			c-3.72-6.37-5.62-10.13-6.84-14.95C381.228,369.254,379.908,364.594,378.508,356.984z M449.858,264.014
			c-0.49-6.19-1.72-10.58-2.95-14.45c-1.24-3.87-6.87-22.7-11.09-30.44c-4.22-7.74-8.64-9.37-16.55-9.96v0.002
			c-0.93-0.115-2.064-0.159-3.59-0.142c0,0,0.03,0.38,0.04,0.57l-0.99-7.27c4.3-4.63,7.21-7.6,10.12-11.61
			c6.98-9.63,6.99-19.14,2.51-21.86c0.26-3.42-1.59-8.55-8.6-11.51c-2.63-1.11-4.91-1.74-7-2.08c-2.36,0.28-4.69,0.78-6.94,1.51
			c-3.11,1-6.2,2.53-8.18,5.13c-1.72,2.28-2.43,5.14-3.1,7.91c-2.15,8.89-4.3,17.95-3.59,27.06c0.12,1.55,0.34,3.13,1.12,4.47
			c0.69,1.16,2.32,2.44,3.93,2.68c0,0,4.31,0.28,6.47,0.32c0.3,1.84,0.73,4.6,1.03,6.44c0.1,0.62,0.2,1.29-0.08,1.85
			c-0.37,0.74-1.24,1.05-2.03,1.27c-7.82,2.15-16.94,2.34-22.44,8.3c-2.06,2.23-3.34,5.04-4.6,7.8c-2.86,6.3-5.72,12.6-8.58,18.89
			c-1.86,4.11-3.85,8.38-7.4,11.16c-6.41,5.02-15.56,3.66-23.46,5.61c-5.73,1.42-10.83,4.61-16.5,6.19c-1.3,0.37-2.6,0.72-3.92,0.98
			c-1.38,0.27-2.78,0.15-4.16,0.36c-1,0.15-2.08,0.88-2.21,1.95c-0.05,0.45,0.07,1.2,0.27,1.61c0.19,0.38,0.46,1.08,1.31,1.68
			c0.61,0.16,1.23,0.31,1.74,0.66c0.82,0.56,1.26,1.58,2.13,2.04c0.46,0.24,0.99,0.3,1.5,0.35c0.92,0.1,1.83,0.38,2.75,0.37
			c1.1,0,1.58-0.52,2.49-1.02c0.25-0.14,0.48-0.28,0.71-0.42c2.72-1.65,4.57-3.47,9.69-3.81c0.25-0.02,0.6-0.04,1.06-0.06
			c2.32-0.12,7.11-0.33,12.42-0.58c0.22,0.27,0.35,0.4,0.35,0.4s5.61-0.15,15.17-0.48c9.42-0.33,10.25-2.55,12.35-6.7
			c0.16-0.31,0.38-0.74,0.64-1.26v0.05c3.07-5.97,8.53-16.73,10.33-20.24c0,0-0.66,28.97-0.59,41.59
			c0.13,23.47,3.81,46.75,7.47,69.93c0.91,5.7,3.33,11.12,5.36,16.55c2.24,6.01,4.55,11.99,7.03,17.9
			c4.87,11.63,10.41,23.03,17.22,33.67c1.48,2.32,3.04,4.63,3.95,7.23c1.26,3.61,1.19,7.53,1.07,11.34
			c-0.09,3.14-0.22,6.33-1.35,9.26c-2.04,5.34-8.95,5.85-13.27,2.7c-0.39,1.28-0.11,2.28-0.11,2.28s-0.52,1.49,0.53,2.98
			c1.83,2.24,9.07,4.69,14.37,3.2c0.09-0.02,0.18-0.06,0.26-0.08c4.31-0.99,11.63-4.18,13-6.67c0.88-1.59,0.81-3.2,0.4-6.59
			c-0.4-3.4,0.97-6.59,1.71-8.45c1.67-4.18,2.42-7.66,1.18-8.87c-0.46-0.68-1.07-1.15-1.56-1.23c-0.4-1.5-1.33-1.92-2.52-2.76
			c-1.49-1.05-2.93-2.3-3.31-2.83c-0.31-0.43-0.43-0.7-0.76-0.92c-0.64-1.54-1.26-3.58-2.07-6.25c0.09-0.02,0.17-0.04,0.26-0.05
			c0,0-6.49-23.69-8.36-29.66c-3.08-9.83-4.27-14.07-8.95-20.68c0,0,0.85-24.65,1.9-44.78l9.56-14.77c0,0,2.245-2.337,4.52-7.218
			c-0.026,0.057-0.053,0.122-0.08,0.178c0.17,0.05,0.36,0.08,0.58,0.07c2.12-0.02,3.63-1.99,5.2-3.09c0.42-0.29,0.74-0.33,0.98-0.24
			c0.04-0.02,0.07-0.05,0.11-0.07c1.69-0.81,1.79,2.97,1.76,3.81c-0.07,1.92-0.67,3.8-1.38,5.58c-1.18,2.94-2.67,5.9-2.53,9.06
			c0,0.22,0.03,0.44,0.09,0.65c0.7-0.35,0.96-1.49,1.33-2.09c0.52-0.84,1.14-1.11,1.93-1.65c0.88-0.59,1.47-1.46,2.24-2.13
			c0.74-0.64,1.88-0.54,2.74-1.19c0.77-0.58,0.73-1.48,1.27-2.14c0.51-0.64,1.37-0.85,1.92-1.53c0.82-1.02,1.47-2.33,1.65-3.64
			c0.38-2.83,1.11-5.57,1.1-8.42c-0.01-2.74-0.03-5.33,0.15-8.04c0.27-4.23,1.13-11.06,1.47-16.74c0.31-0.26,0.41-0.46,0.41-0.46
			S450.218,268.764,449.858,264.014z M439.238,286.084c-0.58,2.15-2.24,3.79-3.51,5.61c-2.54,3.64-3.59,8.17-6.24,11.74
			c0,0.01-0.01,0.01-0.02,0.02c0,0-0.001,0.001-0.01,0.01c0.164-0.38,0.328-0.773,0.49-1.18c1.4-3.5,1.64-7.56,1.39-11.33
			c0.53-0.49,0.77-0.8,0.77-0.8s-0.07-5.84-0.57-11.32c-0.67-7.41-2.12-13.56-1.64-17.21c0.57-4.347,1.178-8.907,1.726-13.177
			c0.001,0.002,0.003,0.005,0.004,0.007v0.01c1.53,3.06,2.91,6.18,4.01,9.37c2.7,7.85,3.37,16.21,3.8,24.44
			C439.508,283.554,439.568,284.854,439.238,286.084z"/>
	</g>
</g>
<g id="Number">
	<g>
		<path style="fill:#BA68C8;" d="M106.137,192.736l-10.502,6.063v25.261l-14.496,8.37l17.016-63.971l-11.29,6.518L68.62,243.195
			v9.763l27.015-15.597v14.618l10.502-6.063v-14.618l7.104-4.102v-13.301l-7.104,4.102V192.736z M144.347,141.791
			c-15.066,8.698-27.279,32.035-27.279,52.122c0,20.087,12.214,29.321,27.279,20.622c15.066-8.698,27.279-32.035,27.279-52.122
			S159.413,133.093,144.347,141.791z M144.347,200.531c-9.268,5.351-16.781-0.329-16.781-12.68c0-12.357,7.513-26.711,16.781-32.062
			c9.268-5.351,16.776,0.331,16.776,12.688C161.123,180.829,153.615,195.181,144.347,200.531z M212.705,156.47v-25.261
			l-10.502,6.063v25.261l-14.497,8.37l17.016-63.971l-11.289,6.518l-18.245,68.218v9.763l27.015-15.597v14.618l10.502-6.063v-14.618
			l7.104-4.102v-13.301L212.705,156.47z"/>
	</g>
</g>
<g id="Text">
	<g id="_x34_04_00000111185040456744589580000004175738698132530565_">
		<g>
			<path style="fill:#37474F;" d="M104.688,151.808c0.072-0.042,0.134-0.043,0.187-0.003c0.052,0.039,0.078,0.107,0.078,0.203v0.929
				c0,0.096-0.026,0.194-0.078,0.294c-0.053,0.1-0.114,0.17-0.187,0.212l-4.305,2.485c-0.072,0.042-0.134,0.042-0.187,0.003
				c-0.052-0.039-0.078-0.107-0.078-0.203v-8.445c0-0.096,0.026-0.194,0.078-0.294c0.053-0.1,0.114-0.17,0.187-0.212l4.226-2.44
				c0.072-0.042,0.134-0.042,0.187-0.003c0.053,0.04,0.079,0.108,0.079,0.204v0.928c0,0.097-0.026,0.194-0.079,0.294
				c-0.053,0.1-0.114,0.17-0.187,0.212l-3.167,1.829v2.078l2.952-1.704c0.071-0.042,0.133-0.042,0.186-0.003
				c0.053,0.04,0.079,0.108,0.079,0.204v0.928c0,0.096-0.026,0.194-0.079,0.293c-0.053,0.101-0.114,0.17-0.186,0.212l-2.952,1.704
				v2.171L104.688,151.808z"/>
			<path style="fill:#37474F;" d="M108.963,141.823c0.817-0.472,1.438-0.578,1.863-0.317c0.425,0.26,0.638,0.839,0.638,1.736
				c0,0.637-0.11,1.242-0.329,1.818c-0.219,0.575-0.541,1.094-0.966,1.558l1.354,2.447c0.019,0.042,0.029,0.083,0.029,0.126
				c0,0.079-0.021,0.159-0.063,0.24c-0.043,0.081-0.094,0.139-0.152,0.173l-0.834,0.482c-0.13,0.075-0.227,0.09-0.289,0.043
				c-0.062-0.047-0.105-0.098-0.132-0.152l-1.285-2.305l-1.304,0.753v3.047c0,0.096-0.026,0.194-0.078,0.293
				c-0.052,0.1-0.115,0.171-0.187,0.212l-0.794,0.458c-0.072,0.042-0.134,0.042-0.186,0.003c-0.053-0.039-0.078-0.107-0.078-0.203
				v-8.445c0-0.096,0.025-0.194,0.078-0.295c0.053-0.1,0.114-0.17,0.186-0.212L108.963,141.823z M107.492,146.79l1.422-0.821
				c0.373-0.215,0.67-0.474,0.892-0.777c0.223-0.302,0.334-0.697,0.334-1.186c0-0.488-0.111-0.751-0.334-0.788
				c-0.222-0.037-0.519,0.052-0.892,0.267l-1.422,0.821V146.79z"/>
			<path style="fill:#37474F;" d="M115.531,138.03c0.817-0.472,1.438-0.578,1.863-0.317c0.425,0.26,0.638,0.839,0.638,1.736
				c0,0.637-0.109,1.242-0.329,1.818c-0.219,0.575-0.54,1.094-0.966,1.558l1.354,2.447c0.02,0.042,0.029,0.083,0.029,0.126
				c0,0.079-0.021,0.159-0.063,0.24c-0.043,0.082-0.094,0.139-0.152,0.173l-0.833,0.482c-0.131,0.075-0.228,0.09-0.29,0.043
				c-0.062-0.047-0.105-0.098-0.132-0.152l-1.284-2.305l-1.305,0.753v3.047c0,0.096-0.026,0.194-0.077,0.293
				c-0.053,0.1-0.115,0.171-0.188,0.212l-0.794,0.458c-0.072,0.042-0.134,0.042-0.186,0.003c-0.053-0.039-0.079-0.107-0.079-0.203
				v-8.445c0-0.096,0.026-0.194,0.079-0.294c0.052-0.1,0.113-0.17,0.186-0.212L115.531,138.03z M114.06,142.998l1.422-0.821
				c0.373-0.215,0.67-0.474,0.893-0.777c0.223-0.302,0.333-0.697,0.333-1.186c0-0.488-0.11-0.75-0.333-0.788
				c-0.223-0.037-0.52,0.052-0.893,0.267l-1.422,0.821V142.998z"/>
			<path style="fill:#37474F;" d="M119.072,139.398c0.019-0.499,0.089-0.999,0.21-1.5c0.121-0.501,0.3-0.979,0.534-1.433
				c0.235-0.454,0.53-0.877,0.883-1.268c0.354-0.392,0.771-0.727,1.255-1.006c0.478-0.276,0.893-0.423,1.246-0.444
				c0.353-0.021,0.646,0.062,0.882,0.249c0.235,0.186,0.415,0.458,0.539,0.813c0.124,0.356,0.196,0.776,0.216,1.261
				c0.006,0.163,0.011,0.342,0.015,0.542c0.003,0.198,0.005,0.404,0.005,0.617c0,0.214-0.002,0.422-0.005,0.624
				c-0.004,0.203-0.009,0.389-0.015,0.557c-0.02,0.499-0.09,1-0.21,1.501c-0.122,0.502-0.3,0.979-0.535,1.433
				c-0.235,0.454-0.531,0.875-0.887,1.264c-0.357,0.389-0.773,0.721-1.251,0.997c-0.483,0.279-0.901,0.429-1.255,0.45
				c-0.353,0.02-0.647-0.06-0.883-0.243c-0.234-0.183-0.413-0.454-0.534-0.815c-0.121-0.362-0.191-0.781-0.21-1.258
				c-0.007-0.161-0.013-0.341-0.015-0.54c-0.004-0.198-0.005-0.404-0.005-0.618c0-0.213,0.001-0.421,0.005-0.623
				C119.059,139.754,119.065,139.568,119.072,139.398z M123.513,136.9c-0.026-0.612-0.179-1.01-0.456-1.194
				c-0.278-0.184-0.646-0.144-1.104,0.121c-0.458,0.264-0.824,0.648-1.102,1.153c-0.277,0.504-0.43,1.078-0.456,1.72
				c-0.013,0.338-0.02,0.71-0.02,1.116c0,0.405,0.007,0.77,0.02,1.094c0.026,0.612,0.179,1.007,0.456,1.187
				c0.278,0.18,0.644,0.138,1.102-0.126c0.457-0.264,0.825-0.646,1.104-1.148c0.277-0.5,0.43-1.071,0.456-1.713
				c0.013-0.339,0.02-0.711,0.02-1.117S123.526,137.223,123.513,136.9z"/>
			<path style="fill:#37474F;" d="M128.924,130.298c0.816-0.472,1.439-0.578,1.863-0.317c0.424,0.26,0.638,0.839,0.638,1.736
				c0,0.637-0.11,1.242-0.329,1.818c-0.22,0.575-0.541,1.094-0.966,1.558l1.352,2.447c0.02,0.042,0.03,0.083,0.03,0.126
				c0,0.079-0.021,0.159-0.063,0.24c-0.043,0.081-0.094,0.139-0.152,0.173l-0.834,0.481c-0.13,0.075-0.227,0.09-0.289,0.043
				c-0.063-0.047-0.106-0.098-0.132-0.152l-1.285-2.305l-1.304,0.753v3.047c0,0.096-0.026,0.194-0.078,0.293
				c-0.053,0.1-0.115,0.171-0.187,0.212l-0.795,0.459c-0.071,0.041-0.133,0.042-0.186,0.003c-0.053-0.039-0.079-0.107-0.079-0.203
				v-8.445c0-0.096,0.026-0.194,0.079-0.294c0.053-0.1,0.114-0.17,0.186-0.212L128.924,130.298z M127.454,135.265l1.421-0.821
				c0.373-0.215,0.67-0.474,0.893-0.777c0.223-0.302,0.333-0.697,0.333-1.186c0-0.488-0.11-0.75-0.333-0.788
				c-0.223-0.037-0.52,0.052-0.893,0.267l-1.421,0.821V135.265z"/>
			<path style="fill:#37474F;" d="M140.805,132.591c-0.111,0.064-0.196,0.074-0.255,0.03c-0.059-0.045-0.102-0.081-0.128-0.11
				l-2.745-3.854v5.387c0,0.096-0.026,0.194-0.078,0.293c-0.052,0.1-0.115,0.171-0.186,0.212l-0.794,0.458
				c-0.072,0.042-0.134,0.042-0.186,0.003c-0.053-0.039-0.078-0.107-0.078-0.203v-8.445c0-0.096,0.025-0.194,0.078-0.295
				c0.053-0.1,0.114-0.17,0.186-0.212l0.687-0.396c0.11-0.064,0.196-0.073,0.255-0.029c0.059,0.044,0.101,0.081,0.127,0.109
				l2.745,3.854v-5.386c0-0.096,0.026-0.194,0.079-0.294c0.053-0.1,0.114-0.171,0.186-0.212l0.795-0.459
				c0.071-0.041,0.134-0.042,0.186-0.003c0.053,0.04,0.079,0.108,0.079,0.204v8.445c0,0.096-0.026,0.194-0.079,0.294
				c-0.052,0.1-0.114,0.17-0.186,0.212L140.805,132.591z"/>
			<g>
				<path style="fill:#37474F;" d="M132.818,136.408c0.012-0.117,0.049-0.241,0.11-0.375c0.062-0.134,0.151-0.235,0.269-0.302
					l0.766-0.442c0.053-0.031,0.098-0.031,0.136-0.002c0.039,0.029,0.057,0.079,0.057,0.149c0,0.032-0.003,0.06-0.009,0.087
					l-0.581,2.286c-0.024,0.092-0.063,0.197-0.119,0.315c-0.056,0.118-0.143,0.211-0.259,0.279l-0.396,0.229
					c-0.053,0.031-0.099,0.032-0.137,0.003c-0.038-0.029-0.057-0.078-0.057-0.148v-0.024L132.818,136.408z"/>
			</g>
			<path style="fill:#37474F;" d="M143.05,125.556c0.02-0.499,0.09-0.999,0.21-1.5c0.121-0.502,0.3-0.979,0.535-1.433
				c0.234-0.454,0.529-0.877,0.882-1.268c0.354-0.392,0.771-0.727,1.255-1.006c0.478-0.276,0.893-0.423,1.246-0.444
				c0.353-0.021,0.646,0.062,0.882,0.248c0.235,0.187,0.415,0.457,0.54,0.813c0.123,0.356,0.196,0.776,0.215,1.261
				c0.007,0.163,0.012,0.342,0.015,0.541c0.004,0.198,0.005,0.404,0.005,0.617c0,0.214-0.001,0.422-0.005,0.624
				c-0.003,0.203-0.008,0.389-0.015,0.557c-0.019,0.5-0.09,1.001-0.21,1.501c-0.122,0.502-0.3,0.979-0.535,1.433
				c-0.235,0.455-0.53,0.875-0.887,1.264c-0.356,0.389-0.773,0.721-1.251,0.997c-0.483,0.279-0.901,0.429-1.255,0.45
				c-0.353,0.02-0.647-0.06-0.882-0.243c-0.235-0.183-0.414-0.454-0.535-0.815c-0.12-0.362-0.19-0.781-0.21-1.258
				c-0.007-0.161-0.012-0.341-0.015-0.541c-0.003-0.198-0.005-0.404-0.005-0.618c0-0.213,0.002-0.421,0.005-0.623
				C143.039,125.912,143.044,125.726,143.05,125.556z M147.492,123.057c-0.026-0.612-0.179-1.01-0.456-1.194
				c-0.278-0.184-0.646-0.144-1.104,0.121c-0.457,0.264-0.824,0.648-1.103,1.153c-0.277,0.504-0.43,1.078-0.456,1.72
				c-0.013,0.338-0.02,0.711-0.02,1.116c0,0.405,0.007,0.77,0.02,1.094c0.026,0.612,0.179,1.007,0.456,1.187
				c0.278,0.18,0.646,0.138,1.103-0.126c0.458-0.264,0.825-0.646,1.104-1.148c0.277-0.5,0.43-1.071,0.456-1.713
				c0.013-0.339,0.02-0.711,0.02-1.117C147.511,123.745,147.505,123.381,147.492,123.057z"/>
			<path style="fill:#37474F;" d="M154.542,115.509c0.072-0.041,0.134-0.042,0.187-0.003c0.053,0.04,0.078,0.108,0.078,0.204v0.928
				c0,0.097-0.025,0.194-0.078,0.294c-0.053,0.1-0.114,0.17-0.187,0.212l-1.765,1.019v7.164c0,0.096-0.026,0.194-0.079,0.293
				c-0.052,0.1-0.114,0.17-0.186,0.212l-0.794,0.458c-0.072,0.042-0.135,0.043-0.187,0.003c-0.053-0.039-0.078-0.107-0.078-0.203
				v-7.164l-1.766,1.019c-0.071,0.041-0.134,0.042-0.186,0.003c-0.053-0.04-0.079-0.107-0.079-0.204v-0.928
				c0-0.096,0.026-0.194,0.079-0.295c0.052-0.1,0.114-0.17,0.186-0.212L154.542,115.509z"/>
			<path style="fill:#37474F;" d="M162.229,111.071c0.071-0.042,0.133-0.042,0.186-0.003c0.053,0.04,0.079,0.108,0.079,0.204v0.928
				c0,0.097-0.026,0.194-0.079,0.294c-0.053,0.1-0.114,0.171-0.186,0.212l-3.129,1.806v2.536l2.933-1.693
				c0.071-0.041,0.134-0.043,0.186-0.003c0.053,0.039,0.079,0.107,0.079,0.203v0.929c0,0.096-0.026,0.194-0.079,0.293
				c-0.052,0.1-0.114,0.171-0.186,0.212l-2.933,1.693v2.994c0,0.096-0.026,0.194-0.077,0.293c-0.053,0.1-0.115,0.171-0.188,0.212
				l-0.794,0.458c-0.072,0.042-0.134,0.042-0.186,0.003c-0.052-0.039-0.078-0.107-0.078-0.203v-8.445
				c0-0.096,0.026-0.194,0.078-0.294c0.053-0.1,0.114-0.17,0.186-0.212L162.229,111.071z"/>
			<path style="fill:#37474F;" d="M163.316,113.856c0.02-0.499,0.09-0.999,0.211-1.5c0.121-0.502,0.3-0.979,0.534-1.433
				c0.235-0.454,0.529-0.877,0.883-1.268c0.354-0.392,0.771-0.727,1.255-1.006c0.478-0.276,0.892-0.423,1.245-0.444
				c0.354-0.021,0.648,0.062,0.883,0.249c0.234,0.187,0.415,0.457,0.539,0.813c0.124,0.356,0.196,0.776,0.216,1.261
				c0.006,0.163,0.011,0.342,0.015,0.541c0.003,0.198,0.005,0.404,0.005,0.617c0,0.214-0.002,0.422-0.005,0.624
				c-0.004,0.203-0.009,0.389-0.015,0.557c-0.02,0.5-0.091,1.001-0.211,1.502c-0.121,0.502-0.299,0.979-0.534,1.433
				c-0.236,0.455-0.531,0.875-0.887,1.264c-0.357,0.389-0.773,0.721-1.251,0.997c-0.484,0.279-0.901,0.429-1.255,0.45
				c-0.354,0.02-0.647-0.06-0.883-0.243c-0.234-0.183-0.413-0.454-0.534-0.815c-0.121-0.362-0.191-0.781-0.211-1.258
				c-0.007-0.161-0.012-0.341-0.014-0.54c-0.004-0.198-0.006-0.404-0.006-0.618c0-0.213,0.002-0.421,0.006-0.623
				C163.304,114.211,163.309,114.025,163.316,113.856z M167.758,111.356c-0.026-0.612-0.179-1.01-0.456-1.194
				c-0.278-0.184-0.646-0.144-1.104,0.121c-0.458,0.264-0.825,0.648-1.104,1.153c-0.277,0.504-0.429,1.078-0.455,1.72
				c-0.013,0.338-0.02,0.711-0.02,1.116c0,0.405,0.007,0.77,0.02,1.094c0.026,0.612,0.178,1.007,0.455,1.187
				c0.278,0.18,0.645,0.138,1.104-0.126c0.457-0.264,0.825-0.646,1.104-1.148c0.277-0.5,0.43-1.071,0.456-1.713
				c0.013-0.339,0.019-0.711,0.019-1.117C167.778,112.045,167.771,111.68,167.758,111.356z"/>
			<path style="fill:#37474F;" d="M175.68,103.305c0.071-0.041,0.134-0.042,0.186-0.003c0.053,0.04,0.079,0.108,0.079,0.204v5.359
				c0,0.541-0.059,1.062-0.176,1.566c-0.119,0.504-0.295,0.98-0.53,1.43c-0.235,0.449-0.529,0.861-0.883,1.235
				c-0.353,0.373-0.761,0.694-1.225,0.962c-0.472,0.272-0.882,0.424-1.231,0.456c-0.35,0.032-0.642-0.042-0.877-0.219
				c-0.235-0.178-0.41-0.452-0.524-0.821c-0.114-0.371-0.172-0.825-0.172-1.366v-5.359c0-0.096,0.026-0.194,0.078-0.294
				c0.053-0.1,0.114-0.17,0.186-0.212l0.794-0.459c0.072-0.041,0.135-0.042,0.187-0.003c0.052,0.041,0.078,0.108,0.078,0.204v5.294
				c0,0.357,0.036,0.642,0.108,0.852c0.072,0.212,0.174,0.36,0.304,0.446c0.131,0.087,0.287,0.113,0.471,0.082
				c0.183-0.031,0.383-0.109,0.599-0.234c0.215-0.124,0.416-0.278,0.603-0.46c0.187-0.182,0.344-0.39,0.476-0.628
				c0.131-0.237,0.233-0.503,0.309-0.799c0.075-0.295,0.113-0.623,0.113-0.98v-5.294c0-0.096,0.025-0.193,0.078-0.294
				c0.052-0.1,0.114-0.171,0.187-0.212L175.68,103.305z"/>
			<path style="fill:#37474F;" d="M181.876,108.879c-0.111,0.064-0.196,0.074-0.255,0.03c-0.059-0.045-0.102-0.081-0.128-0.11
				l-2.745-3.854v5.387c0,0.096-0.026,0.194-0.078,0.293c-0.053,0.1-0.115,0.171-0.187,0.212l-0.795,0.459
				c-0.071,0.041-0.133,0.042-0.186,0.003c-0.053-0.039-0.079-0.107-0.079-0.203v-8.445c0-0.096,0.026-0.194,0.079-0.294
				c0.053-0.1,0.114-0.17,0.186-0.212l0.688-0.397c0.11-0.064,0.196-0.073,0.254-0.029c0.06,0.044,0.102,0.081,0.128,0.109
				l2.745,3.854v-5.386c0-0.096,0.026-0.194,0.079-0.294c0.052-0.1,0.114-0.171,0.186-0.212l0.794-0.459
				c0.072-0.041,0.134-0.042,0.186-0.003c0.053,0.04,0.079,0.108,0.079,0.204v8.445c0,0.096-0.026,0.194-0.079,0.294
				c-0.053,0.1-0.114,0.17-0.186,0.212L181.876,108.879z"/>
			<path style="fill:#37474F;" d="M187.044,96.745c0.483-0.279,0.903-0.437,1.26-0.473c0.357-0.036,0.653,0.035,0.892,0.211
				c0.239,0.176,0.422,0.45,0.55,0.82c0.127,0.371,0.203,0.824,0.229,1.357c0.026,0.63,0.026,1.275,0,1.935
				c-0.026,0.565-0.102,1.105-0.229,1.623c-0.128,0.519-0.309,1.002-0.545,1.452c-0.235,0.449-0.527,0.86-0.877,1.232
				c-0.35,0.372-0.761,0.694-1.23,0.965l-2.472,1.427c-0.071,0.041-0.133,0.042-0.186,0.003c-0.053-0.039-0.079-0.107-0.079-0.203
				v-8.445c0-0.096,0.026-0.194,0.079-0.294c0.053-0.1,0.114-0.17,0.186-0.212L187.044,96.745z M188.651,99.425
				c-0.014-0.27-0.054-0.507-0.123-0.706c-0.068-0.201-0.17-0.351-0.303-0.453c-0.135-0.101-0.304-0.144-0.506-0.126
				c-0.202,0.017-0.444,0.106-0.726,0.269l-1.313,0.759v5.883l1.363-0.787c0.268-0.155,0.499-0.339,0.695-0.552
				c0.196-0.214,0.359-0.445,0.491-0.695c0.13-0.249,0.229-0.517,0.298-0.8c0.069-0.283,0.109-0.568,0.123-0.855
				C188.677,100.7,188.677,100.055,188.651,99.425z"/>
		</g>
	</g>
</g>
</svg>
